#!OML:ASF X:\für Bonn\!DataBase\2005_08_10_Bjorn_Final\c3d\bjorn.ASF
:FULLY-SPECIFIED
:DEGREES
18
root 3.24568 19.1115 -25.153 6.42355 -3.80784 359.24
lowerback -2.88179 1.5533 2.87332
upperback 7.90095 1.87934 -0.260359
thorax 10.1065 1.15201 -1.66615
lowerneck -3.12963 -1.66707 0.775709
upperneck -7.45749 -2.29983 -0.896187
head -1.80971 -1.15607 -0.392765
rclavicle 1.00883e-014 1.2921e-015
rhumerus -40.5883 -1.07114 -94.5866
rradius 97.9537
rwrist -7.01311
rhand -21.8099 27.7895
rfingers 7.12502
rthumb 4.59236 -2.14074
lclavicle 1.00883e-014 1.2921e-015
lhumerus -41.4299 -17.5387 92.9335
lradius 84.1717
lwrist -6.21687
lhand -43.2988 -25.5253
lfingers 7.12502
lthumb -16.1461 3.82218
rfemur -14.7243 -2.98269 12.6511
rtibia 47.2614
rfoot -7.84709 16.4875
rtoes -28.6693
lfemur -16.7522 3.81411 -14.9726
ltibia 50.4879
lfoot -7.37554 -8.2856
ltoes -31.2639
19
root 3.2597 19.3775 -24.9144 6.53859 -3.76632 359.177
lowerback -4.40598 1.57899 2.97206
upperback 7.35412 1.85832 -0.180735
thorax 10.411 1.14123 -1.60847
lowerneck -2.08831 -1.64914 0.782367
upperneck -6.10871 -2.26311 -1.0102
head -1.55813 -1.13361 -0.425332
rclavicle -5.71506e-015 4.37326e-015
rhumerus -41.0572 -0.449238 -94.3536
rradius 100.433
rwrist -6.92973
rhand -21.7612 27.5802
rfingers 7.12502
rthumb 4.63936 -2.349
lclavicle -5.71506e-015 4.37326e-015
lhumerus -41.9628 -18.3432 92.9524
lradius 86.6723
lwrist -6.56251
lhand -43.3917 -25.7104
lfingers 7.12502
lthumb -16.2356 3.62978
rfemur -13.5531 -2.84089 12.6163
rtibia 44.9696
rfoot -3.4866 15.5211
rtoes -30.4835
lfemur -15.2757 4.00185 -14.8013
ltibia 47.8705
lfoot -3.50067 -8.55576
ltoes -30.9451
20
root 3.27528 19.6597 -24.6707 6.63916 -3.74771 359.112
lowerback -5.87137 1.61193 3.09381
upperback 6.82038 1.84345 -0.117366
thorax 10.6984 1.13583 -1.58212
lowerneck -1.22368 -1.63704 0.727401
upperneck -4.52356 -2.22783 -1.02816
head -1.20382 -1.11345 -0.419885
rclavicle 8.89561e-015 -1.98785e-015
rhumerus -41.4276 0.149128 -94.0846
rradius 102.722
rwrist -6.71719
rhand -21.8119 27.4437
rfingers 7.12502
rthumb 4.59037 -2.48655
lclavicle 8.89561e-015 -1.98785e-015
lhumerus -42.4832 -19.0907 92.9265
lradius 88.8787
lwrist -7.09609
lhand -43.6974 -26.0186
lfingers 7.12502
lthumb -16.5299 3.29733
rfemur -12.4537 -2.73381 12.5929
rtibia 42.8058
rfoot 1.35265 14.1343
rtoes -30.5556
lfemur -13.8611 3.96842 -14.6337
ltibia 45.3019
lfoot 0.720734 -8.29729
ltoes -29.9426
21
root 3.29048 19.948 -24.4251 6.71951 -3.73118 359.069
lowerback -7.21646 1.62883 3.15093
upperback 6.29889 1.81236 -0.0348963
thorax 10.9225 1.11607 -1.50511
lowerneck -0.444721 -1.63449 0.675786
upperneck -2.97045 -2.2076 -1.07366
head -0.851265 -1.10153 -0.424137
rclavicle -1.71452e-014 2.38542e-015
rhumerus -41.7777 0.746865 -93.7461
rradius 104.666
rwrist -6.35815
rhand -22.0264 27.8609
rfingers 7.12502
rthumb 4.38332 -2.07378
lclavicle -1.71452e-014 2.38542e-015
lhumerus -43.0677 -19.7497 92.9021
lradius 91.0077
lwrist -7.16122
lhand -44.0919 -26.783
lfingers 7.12502
lthumb -16.9097 2.50086
rfemur -11.4835 -2.6662 12.5761
rtibia 40.8386
rfoot 6.15018 12.1218
rtoes -29.4814
lfemur -12.5434 3.65235 -14.5162
ltibia 42.8412
lfoot 5.01128 -7.4901
ltoes -29.3513
22
root 3.30454 20.2368 -24.1813 6.76527 -3.70029 358.986
lowerback -8.38749 1.63564 3.22193
upperback 5.80568 1.76693 0.0694937
thorax 11.0715 1.08912 -1.41948
lowerneck 0.331447 -1.60859 0.534025
upperneck -1.68978 -2.15785 -1.00659
head -0.583303 -1.07545 -0.378922
rclavicle -4.82053e-015 -5.36719e-015
rhumerus -42.1871 1.29431 -93.41
rradius 106.516
rwrist -6.09681
rhand -22.2536 28.2831
rfingers 7.12502
rthumb 4.16391 -1.65596
lclavicle -4.82053e-015 -5.36719e-015
lhumerus -43.7054 -20.3857 92.8813
lradius 93.0313
lwrist -7.0844
lhand -44.6751 -27.9213
lfingers 7.12502
lthumb -17.471 1.31364
rfemur -10.6239 -2.66846 12.6373
rtibia 39.0997
rfoot 10.4649 9.79589
rtoes -28.1883
lfemur -11.3036 3.28226 -14.3901
ltibia 40.5093
lfoot 9.20627 -6.15473
ltoes -28.7513
23
root 3.32069 20.5191 -23.9417 6.74336 -3.68764 358.941
lowerback -9.33582 1.62038 3.23092
upperback 5.31212 1.70354 0.204248
thorax 11.08 1.04635 -1.27612
lowerneck 1.3661 -1.56096 0.323782
upperneck -0.895581 -2.08686 -0.938045
head -0.507512 -1.03787 -0.319137
rclavicle 1.37161e-014 3.97569e-016
rhumerus -42.7421 1.82547 -93.0241
rradius 108.297
rwrist -5.81716
rhand -22.1624 27.5293
rfingers 7.12502
rthumb 4.25199 -2.40804
lclavicle 1.37161e-014 3.97569e-016
lhumerus -44.3895 -20.9235 92.9279
lradius 94.8926
lwrist -6.98641
lhand -45.1971 -28.772
lfingers 7.12502
lthumb -17.9733 0.417528
rfemur -9.88089 -2.80262 12.6736
rtibia 37.6619
rfoot 14.0262 7.65868
rtoes -27.4933
lfemur -10.1402 2.89271 -14.3698
ltibia 38.405
lfoot 13.0513 -4.81317
ltoes -29.7181
24
root 3.3364 20.7919 -23.7083 6.66367 -3.68288 358.92
lowerback -10.0703 1.61965 3.25206
upperback 4.84015 1.671 0.282473
thorax 10.9875 1.02162 -1.20039
lowerneck 2.54368 -1.48916 0.147532
upperneck -0.45184 -1.98915 -0.773103
head -0.562196 -0.987699 -0.234175
rclavicle -8.39865e-015 -3.97569e-016
rhumerus -43.3886 2.24563 -92.7143
rradius 109.996
rwrist -5.51528
rhand -22.1446 26.6179
rfingers 7.12502
rthumb 4.2691 -3.31905
lclavicle -8.39865e-015 -3.97569e-016
lhumerus -45.0013 -21.5785 92.8912
lradius 96.498
lwrist -6.71032
lhand -45.7154 -29.7404
lfingers 7.12502
lthumb -18.4719 -0.597426
rfemur -9.2559 -3.10976 12.7176
rtibia 36.544
rfoot 16.8906 5.95743
rtoes -27.5557
lfemur -9.09241 2.41108 -14.3959
ltibia 36.6264
lfoot 16.3963 -3.36722
ltoes -30.418
25
root 3.3522 21.0612 -23.4801 6.72034 -3.67709 358.876
lowerback -10.7645 1.61004 3.25787
upperback 4.31901 1.6274 0.394824
thorax 10.8131 0.987898 -1.08379
lowerneck 3.7187 -1.40227 -0.0712278
upperneck -0.100448 -1.87858 -0.63342
head -0.645793 -0.931643 -0.150292
rclavicle -1.42131e-014 -7.7526e-015
rhumerus -44.2335 2.68228 -92.3865
rradius 111.568
rwrist -5.54524
rhand -21.9272 25.3623
rfingers 7.12502
rthumb 4.47905 -4.5703
lclavicle -1.42131e-014 -7.7526e-015
lhumerus -45.6417 -22.2211 92.8937
lradius 97.9612
lwrist -6.2578
lhand -46.0156 -30.1104
lfingers 7.12502
lthumb -18.7607 -0.995084
rfemur -8.93165 -3.65768 12.8258
rtibia 35.7166
rfoot 19.194 4.82867
rtoes -28.2826
lfemur -8.39246 1.9002 -14.4234
ltibia 35.2624
lfoot 19.0884 -2.00356
ltoes -30.6226
